<svg width="32" height="32" viewBox="0 0 32 32" fill="none" xmlns="http://www.w3.org/2000/svg">
  <defs>
    <clipPath id="leftHalf">
      <rect x="0" y="0" width="16" height="32"/>
    </clipPath>
    <clipPath id="rightHalf">
      <rect x="16" y="0" width="16" height="32"/>
    </clipPath>
  </defs>
  
  <!-- Lado esquerdo - Bandeira Britânica -->
  <g clipPath="url(#leftHalf)">
    <rect width="32" height="32" fill="#012169"/>
    <path d="M0,0 L16,16 M16,0 L0,16" stroke="white" strokeWidth="2"/>
    <path d="M0,0 L16,16 M16,0 L0,16" stroke="#C8102E" strokeWidth="1"/>
    <rect x="6" y="0" width="4" height="32" fill="white"/>
    <rect x="0" y="14" width="16" height="4" fill="white"/>
    <rect x="7" y="0" width="2" height="32" fill="#C8102E"/>
    <rect x="0" y="15" width="16" height="2" fill="#C8102E"/>
  </g>
  
  <!-- Lado direito - Bandeira Americana -->
  <g clipPath="url(#rightHalf)">
    <rect x="16" y="0" width="16" height="32" fill="#B22234"/>
    <rect x="16" y="2.5" width="16" height="2.3" fill="white"/>
    <rect x="16" y="7.1" width="16" height="2.3" fill="white"/>
    <rect x="16" y="11.7" width="16" height="2.3" fill="white"/>
    <rect x="16" y="16.3" width="16" height="2.3" fill="white"/>
    <rect x="16" y="20.9" width="16" height="2.3" fill="white"/>
    <rect x="16" y="25.5" width="16" height="2.3" fill="white"/>
    <rect x="16" y="30.1" width="16" height="1.9" fill="white"/>
    
    <rect x="16" y="0" width="7" height="13" fill="#3C3B6E"/>
    
    <circle cx="18" cy="2" r="0.4" fill="white"/>
    <circle cx="20" cy="2" r="0.4" fill="white"/>
    <circle cx="22" cy="2" r="0.4" fill="white"/>
    <circle cx="19" cy="4" r="0.4" fill="white"/>
    <circle cx="21" cy="4" r="0.4" fill="white"/>
    <circle cx="18" cy="6" r="0.4" fill="white"/>
    <circle cx="20" cy="6" r="0.4" fill="white"/>
    <circle cx="22" cy="6" r="0.4" fill="white"/>
    <circle cx="19" cy="8" r="0.4" fill="white"/>
    <circle cx="21" cy="8" r="0.4" fill="white"/>
    <circle cx="18" cy="10" r="0.4" fill="white"/>
    <circle cx="20" cy="10" r="0.4" fill="white"/>
    <circle cx="22" cy="10" r="0.4" fill="white"/>
  </g>
  
  <line x1="16" y1="0" x2="16" y2="32" stroke="#000000" strokeWidth="0.5" opacity="0.3"/>
</svg>